# xmcd CD database file
#
# Track frame offsets:
#	150
#	24918
#	44308
#	62153
#	81220
#	105650
#	134048
#	155553
#	177758
#	214678
#	239965
#	269390
#	281285
#	284718
#
# Disc length: 4062 seconds
#
# Revision: 0
# Processed by: cddbd v1.5.1PL0 Copyright (c) Steve Scherf et al.
# Submitted via: CDex 1.51
#
DISCID=d40fdc0e
DTITLE=John Paulson - Blues for Erin
DYEAR=1995
DGENRE=Jazz
TTITLE0=Blues for Erin
TTITLE1=I Hear A Rhapsody
TTITLE2=Song for Crystal
TTITLE3=Ya Ya
TTITLE4=The Revisitor
TTITLE5=Constant Rain
TTITLE6=They Still Have a Pad Downtown
TTITLE7=OOHA
TTITLE8=Cloud Theory
TTITLE9=Waterplay
TTITLE10=Cafe LeRenoir
TTITLE11=Song for Crystal (short version)
TTITLE12=Glimpse
TTITLE13=Peaceful Silence
EXTD=YEAR: 1995
EXTT0=
EXTT1=
EXTT2=
EXTT3=
EXTT4=
EXTT5=
EXTT6=
EXTT7=
EXTT8=
EXTT9=
EXTT10=
EXTT11=
EXTT12=
EXTT13=
PLAYORDER=
